<svg xmlns="http://www.w3.org/2000/svg">
  <svg
    id="logo-icon"
    viewBox="0 0 16 17"
    fill="none"
    xmlns="http://www.w3.org/2000/svg"
  >
    <path
      d="M14.8418 10.1694C15.1408 9.36412 15.3036 8.49077 15.3066 7.5819C15.3243 3.44313 11.9612 0.0385662 7.82541 7.98092e-05C3.62152 -0.0384066 0.202148 3.35728 0.202148 7.55229C0.202148 11.7473 3.58303 15.1045 7.75436 15.1045C8.68692 15.1045 9.58099 14.9358 10.404 14.6249C11.5734 14.1868 12.8967 14.5243 13.7079 15.4746C14.0661 15.895 14.3651 16.3686 14.5961 16.8571L14.3474 13.9203C14.2408 12.6473 14.3977 11.3624 14.8388 10.1634L14.8418 10.1694ZM8.3287 6.90691C8.34646 6.82993 8.34942 6.74704 8.3287 6.65823C8.26653 6.38586 8.02081 6.18751 7.74252 6.19343C7.42279 6.19935 7.16819 6.45987 7.16819 6.77961C7.16819 6.82401 7.17411 6.86546 7.18299 6.90691C6.1705 7.16151 5.42149 8.07926 5.42149 9.17168C5.42149 10.1457 4.82644 10.9805 3.97974 11.3299V7.55229C3.97974 6.5102 4.40309 5.56284 5.08696 4.87897C5.77083 4.1951 6.71523 3.77175 7.75732 3.77175C8.79942 3.77175 9.74381 4.1951 10.4277 4.87897C11.1116 5.56284 11.5349 6.50724 11.5349 7.55229V11.3299C10.6882 10.9776 10.0932 10.1427 10.0932 9.17168C10.0932 8.07926 9.34415 7.16151 8.33166 6.90691H8.3287Z"
      fill="#F4B400"
    />
  </svg>
  <svg
    id="empty-drawer-icon"
    viewBox="0 0 43 51"
    fill="none"
    xmlns="http://www.w3.org/2000/svg"
  >
    <path
      d="M39.395 0H3.375L0.375 41.874V50.77H42.395V41.874L39.395 0ZM8.03 5H34.739L37.023 36.874H29.703C29.624 39.52 27.467 41.646 24.801 41.646H17.968C15.303 41.646 13.144 39.521 13.066 36.874H5.746L8.03 5Z"
      fill="#C6C6C6"
    />
  </svg>
  <svg
    id="dotted-cube-icon"
    viewBox="0 0 18 19"
    fill="none"
    xmlns="http://www.w3.org/2000/svg"
  >
    <rect
      width="18"
      height="18"
      transform="translate(0 0.5)"
      fill="white"
      style="mix-blend-mode: multiply"
    />
    <path
      d="M6.44145 2.95482L4.74655 3.95652L5.31895 4.92504L7.01385 3.92334L6.44145 2.95482Z"
      fill="#F4F4F4"
    />
    <path
      d="M3.375 7.25H2.25V6.06875C2.25 5.675 2.475 5.28125 2.8125 5.1125L3.65625 4.60625L4.21875 5.5625L3.375 6.06875V7.25Z"
      fill="#F4F4F4"
    />
    <path d="M3.375 8.375H2.25V10.625H3.375V8.375Z" fill="#F4F4F4" />
    <path
      d="M3.65625 14.3938L2.8125 13.8875C2.475 13.6625 2.25 13.325 2.25 12.9313V11.75H3.375V12.9313L4.21875 13.4375L3.65625 14.3938Z"
      fill="#F4F4F4"
    />
    <path
      d="M5.31503 14.0588L4.74274 15.0274L6.43764 16.0289L7.00993 15.0604L5.31503 14.0588Z"
      fill="#F4F4F4"
    />
    <path
      d="M9.84375 15.7438L9 16.25L8.15625 15.7438L7.59375 16.7L8.4375 17.2063C8.60625 17.3188 8.83125 17.375 9 17.375C9.225 17.375 9.39375 17.3188 9.5625 17.2063L10.4062 16.7L9.84375 15.7438Z"
      fill="#F4F4F4"
    />
    <path
      d="M12.6761 14.0709L10.9812 15.0726L11.5536 16.0411L13.2485 15.0394L12.6761 14.0709Z"
      fill="#F4F4F4"
    />
    <path
      d="M14.175 14.5062L13.6125 13.55L14.625 12.9875V11.75H15.75V12.9313C15.75 13.325 15.525 13.7188 15.1875 13.8875L14.175 14.5062Z"
      fill="#F4F4F4"
    />
    <path d="M15.75 8.375H14.625V10.625H15.75V8.375Z" fill="#F4F4F4" />
    <path
      d="M15.75 7.25H14.625V6.06875L13.6125 5.50625L14.175 4.55L15.1875 5.1125C15.525 5.3375 15.75 5.675 15.75 6.06875V7.25Z"
      fill="#F4F4F4"
    />
    <path
      d="M11.5136 2.92936L10.9413 3.89787L12.6362 4.89937L13.2085 3.93086L11.5136 2.92936Z"
      fill="#F4F4F4"
    />
    <path
      d="M9.84375 3.25625L9 2.75L8.15625 3.25625L7.59375 2.3L8.4375 1.79375C8.60625 1.68125 8.775 1.625 9 1.625C9.225 1.625 9.39375 1.68125 9.5625 1.79375L10.4062 2.3L9.84375 3.25625Z"
      fill="#F4F4F4"
    />
  </svg>

  <svg
    id="dotted-rectangle-icon"
    viewBox="0 0 6 9"
    fill="none"
    xmlns="http://www.w3.org/2000/svg"
  >
    <path d="M2.125 0.125H0.375V1.875H2.125V0.125Z" fill="#C6C6C6" />
    <path d="M5.625 0.125H3.875V1.875H5.625V0.125Z" fill="#C6C6C6" />
    <path d="M2.125 3.625H0.375V5.375H2.125V3.625Z" fill="#C6C6C6" />
    <path d="M5.625 3.625H3.875V5.375H5.625V3.625Z" fill="#C6C6C6" />
    <path d="M2.125 7.125H0.375V8.875H2.125V7.125Z" fill="#C6C6C6" />
    <path d="M5.625 7.125H3.875V8.875H5.625V7.125Z" fill="#C6C6C6" />
  </svg>
  <svg
    id="crawler-icon"
    viewBox="0 0 16 17"
    fill="none"
    xmlns="http://www.w3.org/2000/svg"
  >
    <rect
      width="16"
      height="16"
      transform="translate(0 0.5)"
      fill="white"
      style="mix-blend-mode: multiply"
    />
    <path
      d="M15.5 8.49999C15.5004 8.36862 15.4747 8.23847 15.4244 8.1171C15.3741 7.99573 15.3002 7.88555 15.207 7.79294L12.3105 4.89649L13.7445 3.46264C13.9571 3.51964 14.1826 3.50488 14.386 3.42065C14.5894 3.33643 14.7593 3.18744 14.8694 2.9968C14.9795 2.80616 15.0236 2.58452 14.9949 2.36627C14.9661 2.14801 14.8662 1.94533 14.7105 1.78966C14.5549 1.63399 14.3522 1.53404 14.134 1.5053C13.9157 1.47656 13.6941 1.52064 13.5034 1.63071C13.3128 1.74078 13.1638 1.91069 13.0795 2.11407C12.9953 2.31745 12.9805 2.54295 13.0375 2.75559L11.6035 4.18944L8.70704 1.29294C8.6142 1.20007 8.50397 1.1264 8.38266 1.07613C8.26134 1.02587 8.13131 1 7.99999 1C7.86867 1 7.73864 1.02587 7.61732 1.07613C7.49601 1.1264 7.38578 1.20007 7.29294 1.29294L4.39649 4.18944L2.96249 2.75559C3.01947 2.54295 3.0047 2.31745 2.92046 2.11407C2.83622 1.91069 2.68722 1.74078 2.49657 1.63071C2.30592 1.52064 2.08428 1.47656 1.86603 1.5053C1.64777 1.53404 1.4451 1.63399 1.28944 1.78966C1.13378 1.94533 1.03384 2.14801 1.00512 2.36627C0.976398 2.58452 1.0205 2.80616 1.13058 2.9968C1.24066 3.18744 1.41058 3.33643 1.61397 3.42065C1.81736 3.50488 2.04286 3.51964 2.25549 3.46264L3.68944 4.89649L0.79294 7.79294C0.700069 7.88578 0.626397 7.99601 0.576134 8.11732C0.525871 8.23864 0.5 8.36867 0.5 8.49999C0.5 8.63131 0.525871 8.76134 0.576134 8.88266C0.626397 9.00397 0.700069 9.1142 0.79294 9.20704L3.68944 12.1035L2.25549 13.5373C2.04286 13.4803 1.81736 13.4951 1.61397 13.5793C1.41058 13.6636 1.24066 13.8125 1.13058 14.0032C1.0205 14.1938 0.976398 14.4155 1.00512 14.6337C1.03384 14.852 1.13378 15.0547 1.28944 15.2103C1.4451 15.366 1.64777 15.4659 1.86603 15.4947C2.08428 15.5234 2.30592 15.4793 2.49657 15.3693C2.68722 15.2592 2.83622 15.0893 2.92046 14.8859C3.0047 14.6825 3.01947 14.457 2.96249 14.2444L4.39649 12.8105L7.29294 15.707C7.38578 15.7999 7.49601 15.8736 7.61732 15.9238C7.73864 15.9741 7.86867 16 7.99999 16C8.13131 16 8.26134 15.9741 8.38266 15.9238C8.50397 15.8736 8.6142 15.7999 8.70704 15.707L11.6035 12.8105L13.0375 14.2444C12.9805 14.457 12.9953 14.6825 13.0795 14.8859C13.1638 15.0893 13.3128 15.2592 13.5034 15.3693C13.6941 15.4793 13.9157 15.5234 14.134 15.4947C14.3522 15.4659 14.5549 15.366 14.7105 15.2103C14.8662 15.0547 14.9661 14.852 14.9949 14.6337C15.0236 14.4155 14.9795 14.1938 14.8694 14.0032C14.7593 13.8125 14.5894 13.6636 14.386 13.5793C14.1826 13.4951 13.9571 13.4803 13.7445 13.5373L12.3105 12.1035L15.207 9.20704C15.3002 9.11442 15.3741 9.00423 15.4243 8.88286C15.4746 8.7615 15.5003 8.63136 15.5 8.49999ZM11.6035 11.3965L10.207 9.99999L9.49999 10.707L10.8965 12.1035L7.99999 15L5.10349 12.1035L6.49999 10.707L5.79294 9.99999L4.39649 11.3965L1.49999 8.49999L4.39624 5.60324L5.79294 6.99999L6.49999 6.29294L5.10324 4.89624L7.99999 1.99999L10.8967 4.89624L9.49999 6.29294L10.207 6.99999L11.6037 5.60324L14.5 8.49999L11.6035 11.3965Z"
      fill="#F4F4F4"
    />
  </svg>
  <svg
    id="sms-icon"
    viewBox="0 0 14 13"
    fill="none"
    xmlns="http://www.w3.org/2000/svg"
  >
    <path
      d="M7.87 13L7 12.5L9 9H12C12.2652 9 12.5196 8.89464 12.7071 8.70711C12.8946 8.51957 13 8.26522 13 8V2C13 1.73478 12.8946 1.48043 12.7071 1.29289C12.5196 1.10536 12.2652 1 12 1H2C1.73478 1 1.48043 1.10536 1.29289 1.29289C1.10536 1.48043 1 1.73478 1 2V8C1 8.26522 1.10536 8.51957 1.29289 8.70711C1.48043 8.89464 1.73478 9 2 9H6.5V10H2C1.46957 10 0.960859 9.78929 0.585786 9.41421C0.210714 9.03914 0 8.53043 0 8V2C0 1.46957 0.210714 0.960859 0.585786 0.585786C0.960859 0.210714 1.46957 0 2 0H12C12.5304 0 13.0391 0.210714 13.4142 0.585786C13.7893 0.960859 14 1.46957 14 2V8C14 8.53043 13.7893 9.03914 13.4142 9.41421C13.0391 9.78929 12.5304 10 12 10H9.58L7.87 13Z"
      fill="#C6C6C6"
    />
    <path d="M11 3H3V4H11V3Z" fill="#C6C6C6" />
    <path d="M8 6H3V7H8V6Z" fill="#C6C6C6" />
  </svg>

  <svg
    id="mail-icon"
    viewBox="0 0 14 10"
    fill="none"
    xmlns="http://www.w3.org/2000/svg"
  >
    <path
      d="M13 0H1C0.734784 0 0.48043 0.105357 0.292893 0.292893C0.105357 0.48043 0 0.734784 0 1V9C0 9.26522 0.105357 9.51957 0.292893 9.70711C0.48043 9.89464 0.734784 10 1 10H13C13.2652 10 13.5196 9.89464 13.7071 9.70711C13.8946 9.51957 14 9.26522 14 9V1C14 0.734784 13.8946 0.48043 13.7071 0.292893C13.5196 0.105357 13.2652 0 13 0ZM11.9 1L7 4.39L2.1 1H11.9ZM1 9V1.455L6.715 5.41C6.7987 5.46806 6.89813 5.49918 7 5.49918C7.10187 5.49918 7.2013 5.46806 7.285 5.41L13 1.455V9H1Z"
      fill="#C6C6C6"
    />
  </svg>

  <svg
    id="whatsapp-icon"
    viewBox="0 0 13 13"
    fill="none"
    xmlns="http://www.w3.org/2000/svg"
  >
    <path
      fill-rule="evenodd"
      clip-rule="evenodd"
      d="M10.2687 1.75535C9.71424 1.19728 9.05458 0.754763 8.32791 0.453452C7.60123 0.15214 6.822 -0.00198016 6.03533 1.92061e-05C2.73667 1.92061e-05 0.0513334 2.68469 0.05 5.98469C0.05 7.03935 0.325333 8.06869 0.848666 8.97669L0 12.0774L3.17267 11.2447C4.05026 11.7224 5.03347 11.9729 6.03267 11.9734H6.03533C9.33333 11.9734 12.0187 9.28868 12.02 5.98869C12.0223 5.20234 11.8687 4.42335 11.5681 3.69673C11.2674 2.9701 10.8258 2.31027 10.2687 1.75535ZM6.03533 10.9634H6.03333C5.14234 10.9634 4.26776 10.7237 3.50133 10.2694L3.32 10.1614L1.43733 10.6554L1.93933 8.82002L1.82133 8.63202C1.32319 7.83897 1.05949 6.92121 1.06067 5.98469C1.062 3.24202 3.29333 1.01069 6.03733 1.01069C6.69083 1.00923 7.33813 1.13741 7.94177 1.38779C8.5454 1.63817 9.09338 2.00578 9.554 2.46935C10.0171 2.93071 10.3841 3.47928 10.6339 4.08335C10.8837 4.68742 11.0113 5.33501 11.0093 5.98869C11.008 8.73135 8.77667 10.9634 6.03533 10.9634ZM8.764 7.23735C8.614 7.16202 7.87933 6.80069 7.742 6.75069C7.60533 6.70069 7.506 6.67602 7.406 6.82535C7.306 6.97469 7.01933 7.31135 6.932 7.41135C6.84467 7.51135 6.75733 7.52335 6.608 7.44869C6.45867 7.37402 5.97667 7.21602 5.40533 6.70669C4.96067 6.31002 4.66067 5.82068 4.57333 5.67069C4.486 5.52069 4.564 5.44002 4.63933 5.36535C4.70667 5.29869 4.78867 5.19069 4.86333 5.10335C4.938 5.01602 4.96267 4.95402 5.01267 4.85402C5.06267 4.75402 5.038 4.66669 5 4.59202C4.96267 4.51669 4.66333 3.78069 4.53867 3.48135C4.418 3.19135 4.29467 3.23002 4.20267 3.22602C4.10738 3.22212 4.01203 3.22034 3.91667 3.22069C3.84084 3.22262 3.76622 3.2402 3.69751 3.27232C3.62879 3.30444 3.56745 3.35041 3.51733 3.40735C3.38 3.55735 2.994 3.91869 2.994 4.65469C2.994 5.39069 3.53 6.10202 3.60467 6.20202C3.67933 6.30202 4.65933 7.81202 6.15933 8.46002C6.51667 8.61402 6.79533 8.70602 7.012 8.77535C7.37 8.88935 7.696 8.87269 7.954 8.83469C8.24133 8.79202 8.83867 8.47335 8.96333 8.12402C9.088 7.77469 9.088 7.47535 9.05067 7.41269C9.01333 7.35002 8.91267 7.31202 8.764 7.23735Z"
      fill="#C6C6C6"
    />
  </svg>
  <svg
    id="facebook-icon"
    viewBox="0 0 12 12"
    fill="none"
    xmlns="http://www.w3.org/2000/svg"
  >
    <path
      d="M11.335 0H0.665C0.489035 0.00130834 0.320649 0.0717907 0.19622 0.19622C0.0717907 0.320649 0.00130834 0.489035 0 0.665V11.335C0.00130834 11.511 0.0717907 11.6794 0.19622 11.8038C0.320649 11.9282 0.489035 11.9987 0.665 12H6.41V7.36H4.85V5.545H6.41V4.21C6.41 2.66 7.355 1.815 8.745 1.815C9.21 1.815 9.675 1.815 10.14 1.885V3.5H9.185C8.43 3.5 8.285 3.86 8.285 4.385V5.54H10.085L9.85 7.355H8.285V12H11.335C11.511 11.9987 11.6794 11.9282 11.8038 11.8038C11.9282 11.6794 11.9987 11.511 12 11.335V0.665C11.9987 0.489035 11.9282 0.320649 11.8038 0.19622C11.6794 0.0717907 11.511 0.00130834 11.335 0Z"
      fill="#C6C6C6"
    />
  </svg>
  <svg
    id="twitter-icon"
    viewBox="0 0 12 10"
    fill="none"
    xmlns="http://www.w3.org/2000/svg"
  >
    <path
      d="M3.96 9.46967C4.80457 9.47498 5.64179 9.31255 6.4231 8.99179C7.20441 8.67104 7.91425 8.19835 8.51147 7.60113C9.10868 7.00392 9.58137 6.29407 9.90213 5.51277C10.2229 4.73146 10.3853 3.89424 10.38 3.04967C10.38 2.94967 10.38 2.85467 10.38 2.75467C10.8178 2.43391 11.1967 2.03975 11.5 1.58967C11.0878 1.76996 10.6516 1.88954 10.205 1.94467C10.6785 1.66256 11.0337 1.2185 11.205 0.694667C10.7638 0.959387 10.2799 1.14548 9.775 1.24467C9.43496 0.88235 8.985 0.642195 8.49473 0.56136C8.00446 0.480525 7.50122 0.563516 7.06287 0.797494C6.62452 1.03147 6.27549 1.40339 6.0698 1.85571C5.86411 2.30802 5.81322 2.81552 5.925 3.29967C5.02801 3.25564 4.15036 3.02318 3.34918 2.61742C2.548 2.21166 1.84127 1.64171 1.275 0.944667C0.989461 1.44025 0.902913 2.02583 1.03288 2.58283C1.16285 3.13983 1.49962 3.62663 1.975 3.94467C1.62431 3.93114 1.28173 3.83522 0.975 3.66467V3.68967C0.971884 4.20758 1.14636 4.71093 1.46935 5.1158C1.79234 5.52068 2.24434 5.80263 2.75 5.91467C2.42382 6.0024 2.08215 6.01606 1.75 5.95467C1.89639 6.39636 2.17584 6.78195 2.55002 7.05856C2.9242 7.33517 3.3748 7.48925 3.84 7.49967C3.04461 8.13993 2.05605 8.49236 1.035 8.49967C0.855977 8.49449 0.677374 8.47946 0.5 8.45467C1.53348 9.11312 2.7346 9.46026 3.96 9.45467"
      fill="#C6C6C6"
    />
  </svg>

  <svg
    id="clock-icon"
    viewBox="0 0 12 13"
    fill="none"
    xmlns="http://www.w3.org/2000/svg"
  >
    <rect
      width="12"
      height="12"
      transform="translate(0 0.5)"
      fill="white"
      style="mix-blend-mode: multiply"
    />
    <path
      d="M6 11.75C4.96165 11.75 3.94662 11.4421 3.08326 10.8652C2.2199 10.2883 1.54699 9.4684 1.14963 8.50909C0.752275 7.54978 0.648307 6.49418 0.85088 5.47578C1.05345 4.45738 1.55347 3.52192 2.28769 2.78769C3.02192 2.05347 3.95738 1.55345 4.97578 1.35088C5.99418 1.14831 7.04978 1.25227 8.00909 1.64963C8.9684 2.04699 9.78834 2.7199 10.3652 3.58326C10.9421 4.44662 11.25 5.46165 11.25 6.5C11.25 7.89239 10.6969 9.22775 9.71231 10.2123C8.72775 11.1969 7.39239 11.75 6 11.75ZM6 2C5.10999 2 4.23996 2.26392 3.49994 2.75839C2.75992 3.25286 2.18314 3.95566 1.84254 4.77793C1.50195 5.60019 1.41284 6.50499 1.58647 7.37791C1.7601 8.25082 2.18869 9.05265 2.81802 9.68198C3.44736 10.3113 4.24918 10.7399 5.1221 10.9135C5.99501 11.0872 6.89981 10.9981 7.72208 10.6575C8.54434 10.3169 9.24715 9.74009 9.74162 9.00007C10.2361 8.26005 10.5 7.39002 10.5 6.5C10.5 5.30653 10.0259 4.16194 9.18198 3.31802C8.33807 2.47411 7.19348 2 6 2Z"
      fill="#C6C6C6"
    />
    <path
      d="M7.72125 8.75L5.625 6.65375V3.125H6.375V6.3425L8.25 8.22125L7.72125 8.75Z"
      fill="#C6C6C6"
    />
  </svg>
</svg>
