<svg xmlns="http://www.w3.org/2000/svg">
  <svg
    id="logo-icon"
    viewBox="0 0 16 17"
    fill="none"
    xmlns="http://www.w3.org/2000/svg"
  >
    <path
      d="M14.8418 10.1694C15.1408 9.36412 15.3036 8.49077 15.3066 7.5819C15.3243 3.44313 11.9612 0.0385662 7.82541 7.98092e-05C3.62152 -0.0384066 0.202148 3.35728 0.202148 7.55229C0.202148 11.7473 3.58303 15.1045 7.75436 15.1045C8.68692 15.1045 9.58099 14.9358 10.404 14.6249C11.5734 14.1868 12.8967 14.5243 13.7079 15.4746C14.0661 15.895 14.3651 16.3686 14.5961 16.8571L14.3474 13.9203C14.2408 12.6473 14.3977 11.3624 14.8388 10.1634L14.8418 10.1694ZM8.3287 6.90691C8.34646 6.82993 8.34942 6.74704 8.3287 6.65823C8.26653 6.38586 8.02081 6.18751 7.74252 6.19343C7.42279 6.19935 7.16819 6.45987 7.16819 6.77961C7.16819 6.82401 7.17411 6.86546 7.18299 6.90691C6.1705 7.16151 5.42149 8.07926 5.42149 9.17168C5.42149 10.1457 4.82644 10.9805 3.97974 11.3299V7.55229C3.97974 6.5102 4.40309 5.56284 5.08696 4.87897C5.77083 4.1951 6.71523 3.77175 7.75732 3.77175C8.79942 3.77175 9.74381 4.1951 10.4277 4.87897C11.1116 5.56284 11.5349 6.50724 11.5349 7.55229V11.3299C10.6882 10.9776 10.0932 10.1427 10.0932 9.17168C10.0932 8.07926 9.34415 7.16151 8.33166 6.90691H8.3287Z"
      fill="#F4B400"
    />
  </svg>
  <svg
    id="empty-drawer-icon"
    viewBox="0 0 43 51"
    fill="none"
    xmlns="http://www.w3.org/2000/svg"
  >
    <path
      d="M39.395 0H3.375L0.375 41.874V50.77H42.395V41.874L39.395 0ZM8.03 5H34.739L37.023 36.874H29.703C29.624 39.52 27.467 41.646 24.801 41.646H17.968C15.303 41.646 13.144 39.521 13.066 36.874H5.746L8.03 5Z"
      fill="#C6C6C6"
    />
  </svg>
  <svg
    id="dotted-cube-icon"
    viewBox="0 0 18 19"
    fill="none"
    xmlns="http://www.w3.org/2000/svg"
  >
    <rect
      width="18"
      height="18"
      transform="translate(0 0.5)"
      fill="white"
      style="mix-blend-mode: multiply"
    />
    <path
      d="M6.44145 2.95482L4.74655 3.95652L5.31895 4.92504L7.01385 3.92334L6.44145 2.95482Z"
      fill="#F4F4F4"
    />
    <path
      d="M3.375 7.25H2.25V6.06875C2.25 5.675 2.475 5.28125 2.8125 5.1125L3.65625 4.60625L4.21875 5.5625L3.375 6.06875V7.25Z"
      fill="#F4F4F4"
    />
    <path d="M3.375 8.375H2.25V10.625H3.375V8.375Z" fill="#F4F4F4" />
    <path
      d="M3.65625 14.3938L2.8125 13.8875C2.475 13.6625 2.25 13.325 2.25 12.9313V11.75H3.375V12.9313L4.21875 13.4375L3.65625 14.3938Z"
      fill="#F4F4F4"
    />
    <path
      d="M5.31503 14.0588L4.74274 15.0274L6.43764 16.0289L7.00993 15.0604L5.31503 14.0588Z"
      fill="#F4F4F4"
    />
    <path
      d="M9.84375 15.7438L9 16.25L8.15625 15.7438L7.59375 16.7L8.4375 17.2063C8.60625 17.3188 8.83125 17.375 9 17.375C9.225 17.375 9.39375 17.3188 9.5625 17.2063L10.4062 16.7L9.84375 15.7438Z"
      fill="#F4F4F4"
    />
    <path
      d="M12.6761 14.0709L10.9812 15.0726L11.5536 16.0411L13.2485 15.0394L12.6761 14.0709Z"
      fill="#F4F4F4"
    />
    <path
      d="M14.175 14.5062L13.6125 13.55L14.625 12.9875V11.75H15.75V12.9313C15.75 13.325 15.525 13.7188 15.1875 13.8875L14.175 14.5062Z"
      fill="#F4F4F4"
    />
    <path d="M15.75 8.375H14.625V10.625H15.75V8.375Z" fill="#F4F4F4" />
    <path
      d="M15.75 7.25H14.625V6.06875L13.6125 5.50625L14.175 4.55L15.1875 5.1125C15.525 5.3375 15.75 5.675 15.75 6.06875V7.25Z"
      fill="#F4F4F4"
    />
    <path
      d="M11.5136 2.92936L10.9413 3.89787L12.6362 4.89937L13.2085 3.93086L11.5136 2.92936Z"
      fill="#F4F4F4"
    />
    <path
      d="M9.84375 3.25625L9 2.75L8.15625 3.25625L7.59375 2.3L8.4375 1.79375C8.60625 1.68125 8.775 1.625 9 1.625C9.225 1.625 9.39375 1.68125 9.5625 1.79375L10.4062 2.3L9.84375 3.25625Z"
      fill="#F4F4F4"
    />
  </svg>
  <svg
    id="dotted-rectangle-icon"
    viewBox="0 0 14 15"
    fill="none"
    xmlns="http://www.w3.org/2000/svg"
  >
    <g opacity="0.5">
      <rect
        width="14"
        height="14"
        transform="translate(0 0.5)"
        fill="white"
        style="mix-blend-mode: multiply"
      />
      <path d="M6.125 3.125H4.375V4.875H6.125V3.125Z" fill="#C6C6C6" />
      <path d="M9.625 3.125H7.875V4.875H9.625V3.125Z" fill="#C6C6C6" />
      <path d="M6.125 6.625H4.375V8.375H6.125V6.625Z" fill="#C6C6C6" />
      <path d="M9.625 6.625H7.875V8.375H9.625V6.625Z" fill="#C6C6C6" />
      <path d="M6.125 10.125H4.375V11.875H6.125V10.125Z" fill="#C6C6C6" />
      <path d="M9.625 10.125H7.875V11.875H9.625V10.125Z" fill="#C6C6C6" />
    </g>
  </svg>
</svg>
