<svg xmlns="http://www.w3.org/2000/svg">
  <svg
    id="logo-icon"
    viewBox="0 0 16 17"
    fill="none"
    xmlns="http://www.w3.org/2000/svg"
  >
    <path
      d="M14.8418 10.1694C15.1408 9.36412 15.3036 8.49077 15.3066 7.5819C15.3243 3.44313 11.9612 0.0385662 7.82541 7.98092e-05C3.62152 -0.0384066 0.202148 3.35728 0.202148 7.55229C0.202148 11.7473 3.58303 15.1045 7.75436 15.1045C8.68692 15.1045 9.58099 14.9358 10.404 14.6249C11.5734 14.1868 12.8967 14.5243 13.7079 15.4746C14.0661 15.895 14.3651 16.3686 14.5961 16.8571L14.3474 13.9203C14.2408 12.6473 14.3977 11.3624 14.8388 10.1634L14.8418 10.1694ZM8.3287 6.90691C8.34646 6.82993 8.34942 6.74704 8.3287 6.65823C8.26653 6.38586 8.02081 6.18751 7.74252 6.19343C7.42279 6.19935 7.16819 6.45987 7.16819 6.77961C7.16819 6.82401 7.17411 6.86546 7.18299 6.90691C6.1705 7.16151 5.42149 8.07926 5.42149 9.17168C5.42149 10.1457 4.82644 10.9805 3.97974 11.3299V7.55229C3.97974 6.5102 4.40309 5.56284 5.08696 4.87897C5.77083 4.1951 6.71523 3.77175 7.75732 3.77175C8.79942 3.77175 9.74381 4.1951 10.4277 4.87897C11.1116 5.56284 11.5349 6.50724 11.5349 7.55229V11.3299C10.6882 10.9776 10.0932 10.1427 10.0932 9.17168C10.0932 8.07926 9.34415 7.16151 8.33166 6.90691H8.3287Z"
      fill="#F4B400"
    />
  </svg>
  <svg
    id="empty-drawer-icon"
    viewBox="0 0 43 51"
    fill="none"
    xmlns="http://www.w3.org/2000/svg"
  >
    <path
      d="M39.395 0H3.375L0.375 41.874V50.77H42.395V41.874L39.395 0ZM8.03 5H34.739L37.023 36.874H29.703C29.624 39.52 27.467 41.646 24.801 41.646H17.968C15.303 41.646 13.144 39.521 13.066 36.874H5.746L8.03 5Z"
      fill="#C6C6C6"
    />
  </svg>
  <svg
    id="dotted-cube-icon"
    viewBox="0 0 18 19"
    fill="none"
    xmlns="http://www.w3.org/2000/svg"
  >
    <rect
      width="18"
      height="18"
      transform="translate(0 0.5)"
      fill="white"
      style="mix-blend-mode: multiply"
    />
    <path
      d="M6.44145 2.95482L4.74655 3.95652L5.31895 4.92504L7.01385 3.92334L6.44145 2.95482Z"
      fill="#F4F4F4"
    />
    <path
      d="M3.375 7.25H2.25V6.06875C2.25 5.675 2.475 5.28125 2.8125 5.1125L3.65625 4.60625L4.21875 5.5625L3.375 6.06875V7.25Z"
      fill="#F4F4F4"
    />
    <path d="M3.375 8.375H2.25V10.625H3.375V8.375Z" fill="#F4F4F4" />
    <path
      d="M3.65625 14.3938L2.8125 13.8875C2.475 13.6625 2.25 13.325 2.25 12.9313V11.75H3.375V12.9313L4.21875 13.4375L3.65625 14.3938Z"
      fill="#F4F4F4"
    />
    <path
      d="M5.31503 14.0588L4.74274 15.0274L6.43764 16.0289L7.00993 15.0604L5.31503 14.0588Z"
      fill="#F4F4F4"
    />
    <path
      d="M9.84375 15.7438L9 16.25L8.15625 15.7438L7.59375 16.7L8.4375 17.2063C8.60625 17.3188 8.83125 17.375 9 17.375C9.225 17.375 9.39375 17.3188 9.5625 17.2063L10.4062 16.7L9.84375 15.7438Z"
      fill="#F4F4F4"
    />
    <path
      d="M12.6761 14.0709L10.9812 15.0726L11.5536 16.0411L13.2485 15.0394L12.6761 14.0709Z"
      fill="#F4F4F4"
    />
    <path
      d="M14.175 14.5062L13.6125 13.55L14.625 12.9875V11.75H15.75V12.9313C15.75 13.325 15.525 13.7188 15.1875 13.8875L14.175 14.5062Z"
      fill="#F4F4F4"
    />
    <path d="M15.75 8.375H14.625V10.625H15.75V8.375Z" fill="#F4F4F4" />
    <path
      d="M15.75 7.25H14.625V6.06875L13.6125 5.50625L14.175 4.55L15.1875 5.1125C15.525 5.3375 15.75 5.675 15.75 6.06875V7.25Z"
      fill="#F4F4F4"
    />
    <path
      d="M11.5136 2.92936L10.9413 3.89787L12.6362 4.89937L13.2085 3.93086L11.5136 2.92936Z"
      fill="#F4F4F4"
    />
    <path
      d="M9.84375 3.25625L9 2.75L8.15625 3.25625L7.59375 2.3L8.4375 1.79375C8.60625 1.68125 8.775 1.625 9 1.625C9.225 1.625 9.39375 1.68125 9.5625 1.79375L10.4062 2.3L9.84375 3.25625Z"
      fill="#F4F4F4"
    />
  </svg>

  <svg
    id="dotted-rectangle-icon"
    viewBox="0 0 6 9"
    fill="none"
    xmlns="http://www.w3.org/2000/svg"
  >
    <path d="M2.125 0.125H0.375V1.875H2.125V0.125Z" fill="#C6C6C6" />
    <path d="M5.625 0.125H3.875V1.875H5.625V0.125Z" fill="#C6C6C6" />
    <path d="M2.125 3.625H0.375V5.375H2.125V3.625Z" fill="#C6C6C6" />
    <path d="M5.625 3.625H3.875V5.375H5.625V3.625Z" fill="#C6C6C6" />
    <path d="M2.125 7.125H0.375V8.875H2.125V7.125Z" fill="#C6C6C6" />
    <path d="M5.625 7.125H3.875V8.875H5.625V7.125Z" fill="#C6C6C6" />
  </svg>
  <svg
    id="crawler-icon"
    viewBox="0 0 16 17"
    fill="none"
    xmlns="http://www.w3.org/2000/svg"
  >
    <rect
      width="16"
      height="16"
      transform="translate(0 0.5)"
      fill="white"
      style="mix-blend-mode: multiply"
    />
    <path
      d="M15.5 8.49999C15.5004 8.36862 15.4747 8.23847 15.4244 8.1171C15.3741 7.99573 15.3002 7.88555 15.207 7.79294L12.3105 4.89649L13.7445 3.46264C13.9571 3.51964 14.1826 3.50488 14.386 3.42065C14.5894 3.33643 14.7593 3.18744 14.8694 2.9968C14.9795 2.80616 15.0236 2.58452 14.9949 2.36627C14.9661 2.14801 14.8662 1.94533 14.7105 1.78966C14.5549 1.63399 14.3522 1.53404 14.134 1.5053C13.9157 1.47656 13.6941 1.52064 13.5034 1.63071C13.3128 1.74078 13.1638 1.91069 13.0795 2.11407C12.9953 2.31745 12.9805 2.54295 13.0375 2.75559L11.6035 4.18944L8.70704 1.29294C8.6142 1.20007 8.50397 1.1264 8.38266 1.07613C8.26134 1.02587 8.13131 1 7.99999 1C7.86867 1 7.73864 1.02587 7.61732 1.07613C7.49601 1.1264 7.38578 1.20007 7.29294 1.29294L4.39649 4.18944L2.96249 2.75559C3.01947 2.54295 3.0047 2.31745 2.92046 2.11407C2.83622 1.91069 2.68722 1.74078 2.49657 1.63071C2.30592 1.52064 2.08428 1.47656 1.86603 1.5053C1.64777 1.53404 1.4451 1.63399 1.28944 1.78966C1.13378 1.94533 1.03384 2.14801 1.00512 2.36627C0.976398 2.58452 1.0205 2.80616 1.13058 2.9968C1.24066 3.18744 1.41058 3.33643 1.61397 3.42065C1.81736 3.50488 2.04286 3.51964 2.25549 3.46264L3.68944 4.89649L0.79294 7.79294C0.700069 7.88578 0.626397 7.99601 0.576134 8.11732C0.525871 8.23864 0.5 8.36867 0.5 8.49999C0.5 8.63131 0.525871 8.76134 0.576134 8.88266C0.626397 9.00397 0.700069 9.1142 0.79294 9.20704L3.68944 12.1035L2.25549 13.5373C2.04286 13.4803 1.81736 13.4951 1.61397 13.5793C1.41058 13.6636 1.24066 13.8125 1.13058 14.0032C1.0205 14.1938 0.976398 14.4155 1.00512 14.6337C1.03384 14.852 1.13378 15.0547 1.28944 15.2103C1.4451 15.366 1.64777 15.4659 1.86603 15.4947C2.08428 15.5234 2.30592 15.4793 2.49657 15.3693C2.68722 15.2592 2.83622 15.0893 2.92046 14.8859C3.0047 14.6825 3.01947 14.457 2.96249 14.2444L4.39649 12.8105L7.29294 15.707C7.38578 15.7999 7.49601 15.8736 7.61732 15.9238C7.73864 15.9741 7.86867 16 7.99999 16C8.13131 16 8.26134 15.9741 8.38266 15.9238C8.50397 15.8736 8.6142 15.7999 8.70704 15.707L11.6035 12.8105L13.0375 14.2444C12.9805 14.457 12.9953 14.6825 13.0795 14.8859C13.1638 15.0893 13.3128 15.2592 13.5034 15.3693C13.6941 15.4793 13.9157 15.5234 14.134 15.4947C14.3522 15.4659 14.5549 15.366 14.7105 15.2103C14.8662 15.0547 14.9661 14.852 14.9949 14.6337C15.0236 14.4155 14.9795 14.1938 14.8694 14.0032C14.7593 13.8125 14.5894 13.6636 14.386 13.5793C14.1826 13.4951 13.9571 13.4803 13.7445 13.5373L12.3105 12.1035L15.207 9.20704C15.3002 9.11442 15.3741 9.00423 15.4243 8.88286C15.4746 8.7615 15.5003 8.63136 15.5 8.49999ZM11.6035 11.3965L10.207 9.99999L9.49999 10.707L10.8965 12.1035L7.99999 15L5.10349 12.1035L6.49999 10.707L5.79294 9.99999L4.39649 11.3965L1.49999 8.49999L4.39624 5.60324L5.79294 6.99999L6.49999 6.29294L5.10324 4.89624L7.99999 1.99999L10.8967 4.89624L9.49999 6.29294L10.207 6.99999L11.6037 5.60324L14.5 8.49999L11.6035 11.3965Z"
      fill="#F4F4F4"
    />
  </svg>
</svg>
