<svg xmlns="http://www.w3.org/2000/svg">
  <svg
    id="logo-icon"
    viewBox="0 0 16 17"
    fill="none"
    xmlns="http://www.w3.org/2000/svg"
  >
    <path
      d="M14.8418 10.1694C15.1408 9.36412 15.3036 8.49077 15.3066 7.5819C15.3243 3.44313 11.9612 0.0385662 7.82541 7.98092e-05C3.62152 -0.0384066 0.202148 3.35728 0.202148 7.55229C0.202148 11.7473 3.58303 15.1045 7.75436 15.1045C8.68692 15.1045 9.58099 14.9358 10.404 14.6249C11.5734 14.1868 12.8967 14.5243 13.7079 15.4746C14.0661 15.895 14.3651 16.3686 14.5961 16.8571L14.3474 13.9203C14.2408 12.6473 14.3977 11.3624 14.8388 10.1634L14.8418 10.1694ZM8.3287 6.90691C8.34646 6.82993 8.34942 6.74704 8.3287 6.65823C8.26653 6.38586 8.02081 6.18751 7.74252 6.19343C7.42279 6.19935 7.16819 6.45987 7.16819 6.77961C7.16819 6.82401 7.17411 6.86546 7.18299 6.90691C6.1705 7.16151 5.42149 8.07926 5.42149 9.17168C5.42149 10.1457 4.82644 10.9805 3.97974 11.3299V7.55229C3.97974 6.5102 4.40309 5.56284 5.08696 4.87897C5.77083 4.1951 6.71523 3.77175 7.75732 3.77175C8.79942 3.77175 9.74381 4.1951 10.4277 4.87897C11.1116 5.56284 11.5349 6.50724 11.5349 7.55229V11.3299C10.6882 10.9776 10.0932 10.1427 10.0932 9.17168C10.0932 8.07926 9.34415 7.16151 8.33166 6.90691H8.3287Z"
      fill="#F4B400"
    />
  </svg>
  <svg
    id="empty-drawer-icon"
    viewBox="0 0 43 51"
    fill="none"
    xmlns="http://www.w3.org/2000/svg"
  >
    <path
      d="M39.395 0H3.375L0.375 41.874V50.77H42.395V41.874L39.395 0ZM8.03 5H34.739L37.023 36.874H29.703C29.624 39.52 27.467 41.646 24.801 41.646H17.968C15.303 41.646 13.144 39.521 13.066 36.874H5.746L8.03 5Z"
      fill="#C6C6C6"
    />
  </svg>
</svg>
